<svg width="358" height="346" viewBox="0 0 358 346" fill="none" xmlns="http://www.w3.org/2000/svg">
<path d="M110 39C110 44.5228 105.523 49 100 49H57C39.8792 49 26 62.8792 26 80V266C26 283.121 39.8792 297 57 297H100C105.523 297 110 301.477 110 307V313C110 318.523 105.523 323 100 323H57L56.2637 322.995C25.1228 322.601 0 297.234 0 266V80C0 48.7656 25.1228 23.3991 56.2637 23.0049L57 23H100C105.523 23 110 27.4772 110 33V39Z" fill="white"/>
<path d="M248 307C248 301.477 252.477 297 258 297L301 297C318.121 297 332 283.121 332 266L332 80C332 62.8792 318.121 49 301 49L258 49C252.477 49 248 44.5228 248 39L248 33C248 27.4771 252.477 23 258 23L301 23L301.736 23.0049C332.877 23.3991 358 48.7656 358 80L358 266C358 297.234 332.877 322.601 301.736 322.995L301 323L258 323C252.477 323 248 318.523 248 313L248 307Z" fill="white"/>
<line x1="187" y1="8" x2="187" y2="338" stroke="white" stroke-width="16" stroke-linecap="round" stroke-dasharray="32 32"/>
<path d="M265.991 249C268.195 249 269.73 247.499 269.978 245.215C273.406 217.667 274.658 216.865 303.031 212.403C305.502 212.054 307 210.723 307 208.543C307 206.381 305.502 204.965 303.489 204.597C274.812 199.08 273.406 199.296 269.978 171.786C269.73 169.501 268.195 168 265.991 168C263.873 168 262.337 169.501 262.003 171.682C258.451 199.72 257.476 200.599 228.511 204.597C226.518 204.842 225 206.381 225 208.543C225 210.619 226.498 212.035 228.492 212.403C257.533 218.006 258.365 217.894 262.003 245.423C262.337 247.499 263.911 249 265.991 249Z" fill="white" fill-opacity="0.85"/>
<path d="M104.035 155.547C103.734 157.254 102.732 158.363 100.902 158.363C99.0725 158.363 97.9577 157.254 97.6567 155.572C93.5535 132.901 93.8291 132.7 69.9192 127.897C68.1148 127.573 67 126.489 67 124.669C67 122.874 68.1388 121.741 69.9446 121.466C93.8291 116.935 93.1494 116.435 97.6567 93.8161C97.9577 92.1089 99.0725 91 100.902 91C102.732 91 103.734 92.1089 104.035 93.8407C108.604 116.238 107.95 116.663 131.884 121.466C133.601 121.765 134.805 122.874 134.805 124.669C134.805 126.489 133.601 127.573 131.811 127.897C108.198 132.29 108.112 132.769 104.136 154.982L104.035 155.547Z" fill="white" fill-opacity="0.85"/>
</svg>
